<svg width="40" height="40" viewBox="0 0 40 40" fill="none" xmlns="http://www.w3.org/2000/svg">
<path d="M30.108 37.5169C30.3012 36.6534 30.3977 35.0222 30.6874 34.9262C35.6118 33.8708 36.4808 29.1691 37.6395 25.8108C38.8947 22.3566 37.9291 17.9428 37.4463 14.0088C36.867 9.11528 32.0392 7.00431 29.4321 3.35815C35.2255 4.89338 37.9292 10.0748 39.1844 14.6804C40.2465 18.4225 40.5361 23.0282 38.4119 27.6339C36.4808 31.9517 33.2944 34.5424 30.108 37.5169Z" fill="black"/>
<path d="M4.0377 7.67603C3.3618 9.97886 2.2997 12.1858 2.01003 14.4886C1.6238 18.1348 1.33408 21.8769 1.72031 25.619C2.00998 27.9218 3.55491 30.0328 4.52048 32.3356C-0.597028 26.2906 -1.36951 18.5186 2.2031 12.4736C3.07211 10.9384 3.45836 9.21125 4.0377 7.67603Z" fill="black"/>
<path d="M29.2391 2.97453C23.9284 1.91907 18.5213 0.863576 13.1141 2.5907C11.4727 3.16641 10.314 4.70166 8.8656 5.85308C9.25183 4.70166 9.44493 2.78261 10.1208 2.5907C13.6934 1.43929 17.4591 0 21.2249 0C23.8319 0 26.5355 1.91907 29.2391 2.97453Z" fill="black"/>
<path d="M8.38281 35.0222C13.2107 37.8048 18.0385 40.3955 24.025 37.9008C25.6665 37.2291 27.7907 37.9008 29.6253 37.9008C23.5422 40.9712 17.266 40.2036 11.0864 38.5724C10.0243 38.2846 9.34838 36.2696 8.38281 35.0222Z" fill="black"/>
<path d="M4.81018 20.4378C4.71362 11.7062 10.9898 5.18151 19.6799 4.98961C28.4666 4.7977 35.4187 11.5143 35.3222 20.2459C35.3222 28.7856 28.6597 35.4062 20.0661 35.5022C11.4726 35.5022 4.90674 28.9775 4.81018 20.4378ZM5.96887 20.1499C5.96887 28.1139 11.9554 34.063 19.8731 34.1589C27.8873 34.1589 33.9703 28.3058 34.0669 20.4378C34.1634 12.186 28.1769 6.14101 19.9696 6.23697C11.9554 6.23697 5.96887 12.186 5.96887 20.1499Z" fill="black"/>
<path d="M10.1208 14.2966C14.3693 14.2966 17.9419 14.2966 18.8109 9.59493C18.9074 9.11517 21.3214 8.44351 21.4179 8.63541C22.2869 10.0747 22.9628 11.8018 23.6387 13.2411C25.3767 14.0087 28.9494 14.8723 29.0459 15.9278C29.4322 19.5739 28.5631 23.316 27.8872 26.8662C27.7907 27.4419 25.763 28.0176 24.5078 28.0176C20.8386 28.2095 17.1694 27.9217 13.4037 28.1136C10.8933 28.2095 9.92768 27.1541 10.0242 24.7553C10.2174 21.5889 10.1208 18.2306 10.1208 14.2966ZM26.8251 26.5784C27.3079 22.9322 27.6941 19.382 28.0804 15.8318C25.4733 15.5439 23.4456 15.352 21.5145 15.1601C21.4179 13.2411 21.3214 11.6099 21.2248 8.92325C16.1073 14.9682 17.3625 20.7253 17.6522 26.5784C20.742 26.5784 23.4456 26.5784 26.8251 26.5784ZM12.0519 16.1196C10.2173 20.3415 12.245 23.2201 15.6245 25.6188C16.5901 16.2156 16.397 15.6399 12.0519 16.1196Z" fill="black"/>
</svg>
