<svg width="60" height="60" viewBox="0 0 60 60" fill="none" xmlns="http://www.w3.org/2000/svg">
<path d="M34.3713 43.1664C37.1545 43.1664 38.6901 43.1664 40.8016 43.1664C37.0586 40.314 36.6747 38.5074 40.1297 34.6091C42.3372 32.1371 40.8016 26.2421 40.5137 21.9635C40.5137 21.5832 37.3465 21.1078 35.619 21.2029C32.4519 21.2979 31.0122 20.3471 30.9162 16.9243C30.6283 11.4096 29.8605 5.99005 29.1887 0C39.458 0 49.4392 0 59.8044 0C59.1326 6.65561 58.6528 13.0259 57.5971 19.3963C57.5011 20.157 54.7178 21.1078 53.2782 21.0127C49.0554 20.7275 47.2319 22.1537 47.9037 26.4323C47.9997 27.1929 47.9997 28.0486 47.9037 28.8093C47.3278 33.4682 48.6714 36.0354 54.046 35.3698C58.2689 34.7994 60.0924 36.796 59.9964 41.1697C59.7085 47.1598 59.9005 53.1498 59.9005 59.6153C57.981 59.7104 56.4454 59.9005 54.9098 59.9005C39.266 59.9005 23.5262 59.8054 7.88245 59.9956C3.85153 60.0906 2.79579 58.6645 2.69982 54.8613C2.50787 47.9204 1.7401 40.9795 1.16426 34.0387C1.06828 33.0879 1.16427 32.042 0.876345 31.1863C-1.81093 23.675 1.8361 16.9243 9.70598 14.5473C11.0496 14.1669 12.2973 12.9309 13.161 11.885C15.3684 9.1277 18.4396 7.41623 21.5108 9.12767C23.8142 10.4588 26.0215 13.2161 26.6934 15.6882C27.941 21.1078 28.9968 22.7241 34.6593 23.3897C37.9224 23.77 38.5942 25.8618 37.5385 29.2847C36.0989 33.6584 35.427 38.2222 34.3713 43.1664ZM12.7771 32.7075C12.7771 34.2288 13.257 36.1304 12.6812 37.6517C12.0093 39.2681 10.3778 40.5042 9.22611 41.8353C8.17039 40.5042 6.53882 39.2681 6.15492 37.7468C5.57908 35.4649 5.77103 32.9928 5.67505 30.7109C4.61934 31.0912 4.23544 31.4715 4.23544 31.7567C4.61934 39.4582 5.0032 47.2548 5.57904 54.9563C5.67502 55.812 7.0187 57.3333 7.7865 57.3333C14.1208 57.5235 20.455 57.4284 26.6934 57.4284C28.3249 51.8187 24.582 44.9729 32.0679 42.2156C32.2599 42.1205 32.2599 41.6451 32.2599 41.3599C32.5478 37.8419 32.7398 34.2288 33.0277 30.5207C28.7089 30.5207 25.1578 30.5207 22.7584 30.5207C20.743 33.183 19.3993 35.0846 17.9597 36.8911C16.2322 35.56 14.6006 34.2288 12.7771 32.7075ZM4.04348 22.534C12.7771 25.5766 6.53881 32.9928 8.84219 36.7009C9.99388 34.3239 11.4335 31.4715 12.7771 28.6191C14.5046 29.8552 16.2322 31.1863 17.7678 32.3273C18.5356 24.7208 18.5356 24.7208 24.8699 22.7241C24.486 20.3471 24.39 17.9702 23.8141 15.8784C23.3343 14.3571 22.3745 12.3604 21.1269 11.885C19.8792 11.3145 16.904 11.7899 16.5201 12.6457C15.8483 14.0719 16.5201 16.1636 16.7121 18.3505C11.9134 17.0193 6.92271 15.9735 4.04348 22.534ZM34.2753 2.09178C33.6995 2.18686 33.2196 2.18681 32.6438 2.28189C32.7397 4.37365 33.0277 6.37034 33.0277 8.4621C33.0277 12.4555 34.8512 14.0718 38.9781 13.6915C42.6251 13.4063 46.3681 13.7866 50.0151 13.5965C51.9346 13.5014 55.1017 13.1211 55.3897 12.1703C56.4454 9.12768 56.4454 5.60973 56.8293 2.377C56.1575 2.28192 55.5816 2.18686 54.9098 2.09178C54.3339 4.08846 53.7581 6.08513 53.1823 8.08181C52.7984 8.08181 52.4145 8.08181 52.0306 8.08181C51.6467 6.46545 51.1668 4.8491 51.0708 4.46878C49.2473 4.08846 48.2876 3.99337 47.2319 3.80321C45.5043 3.51797 43.8728 2.94746 42.1452 2.94746C40.9935 2.94746 39.7459 3.70809 38.3063 4.18349C38.0183 5.22937 37.5385 6.65559 37.0586 8.17687C36.6747 8.17687 36.2908 8.08181 35.9069 8.08181C35.3311 5.99005 34.7552 3.99338 34.2753 2.09178ZM57.5971 50.4875C47.9037 50.4875 39.074 50.4875 29.7645 50.4875C29.9565 52.9596 30.1485 55.0514 30.3404 57.1432C30.6283 57.1432 31.0122 57.1432 31.3002 57.1432C31.78 55.6219 32.3559 54.1006 32.8357 52.5793C33.2196 52.5793 33.5075 52.5793 33.8914 52.4843C34.4673 54.0056 35.0431 55.6219 35.9069 57.9989C36.8667 55.6219 37.4425 54.1006 38.4982 51.3433C39.5539 54.1957 40.1297 55.717 41.0895 58.2841C41.9533 55.717 42.5291 54.1006 43.5849 51.3433C44.5446 54.3859 45.1204 55.9071 46.0802 58.8546C47.0399 55.7169 47.5198 54.1957 47.9996 52.5793C48.3835 52.5793 48.6715 52.5793 49.0554 52.6744C49.6312 54.2907 50.303 55.8121 51.1668 58.1891C52.0305 55.717 52.6064 54.1957 53.1823 52.5793C53.5662 52.5793 53.8541 52.6744 54.238 52.6744C54.7178 54.2907 55.2937 55.9071 55.7736 57.5235C56.1575 57.5235 56.5413 57.5235 56.9252 57.5235C57.2131 55.2416 57.4051 53.1498 57.5971 50.4875ZM41.9533 38.1271C41.9533 38.5074 41.9533 38.9828 41.9533 39.3632C44.1607 39.3632 46.3681 39.2681 48.5755 39.3632C51.3588 39.5533 55.6776 38.1271 55.6776 42.5959C55.6776 47.1598 51.3588 45.7336 48.5755 45.8287C42.8171 46.0188 37.1546 45.9237 31.3961 45.9237C31.3961 46.304 31.3961 46.5892 31.3961 46.9696C39.9378 46.9696 48.4795 46.9696 57.2132 46.9696C57.3092 45.8286 57.3092 44.8779 57.5011 43.9271C58.1729 39.5534 56.7333 37.4616 51.8386 38.0321C48.5755 38.4124 45.2164 38.1271 41.9533 38.1271ZM34.4673 16.639C34.4673 17.0194 34.4673 17.3997 34.4673 17.78C41.2815 17.78 48.0956 17.78 55.0057 17.78C55.0057 17.3997 55.0057 17.0194 55.0057 16.639C48.1916 16.639 41.2815 16.639 34.4673 16.639ZM45.0245 22.0586C44.8325 22.0586 44.6406 22.1537 44.3526 22.1537C44.3526 26.147 44.3526 30.1404 44.3526 34.1337C44.5446 34.1337 44.7365 34.1337 45.0245 34.1337C45.0245 30.0453 45.0245 26.052 45.0245 22.0586Z" fill="black"/>
</svg>
