<svg width="40" height="40" viewBox="0 0 40 40" fill="none" xmlns="http://www.w3.org/2000/svg">
<path d="M31.3507 35.474C35.916 28.9993 42.8104 23.163 33.9595 15.5028C32.3756 16.4147 30.6054 17.4178 28.6489 18.5121C26.8787 15.7763 25.2949 13.3141 23.711 10.8519C23.9905 10.5784 24.27 10.396 24.5495 10.1224C26.1333 12.1286 27.8104 14.1349 29.5806 16.4147C31.7234 13.4965 34.0526 10.7607 37.2204 16.6883C36.9409 9.39284 30.3259 2.64459 23.8973 1.82386C21.6613 1.55028 14.2078 7.11303 13.3693 9.94C14.9532 9.66642 16.2576 9.48405 18.4004 9.11927C17.5619 10.1224 17.1892 10.6696 17.0029 10.9431C21.2886 13.9525 25.6675 17.1442 30.4191 20.5184C26.1333 24.9868 27.3445 31.8263 20.8228 34.6532C19.9843 33.0118 18.8663 31.7351 18.6799 30.3672C18.1209 26.3547 18.1209 22.707 12.2513 21.8863C9.54943 21.5215 9.92212 17.7826 11.506 15.2292C12.1581 14.1349 13.183 12.4022 12.7171 11.7639C9.9221 7.02184 12.9035 5.28919 16.7234 3.73891C17.5619 3.46533 18.3073 2.91815 19.0526 2.46219C18.8663 2.09742 18.7731 1.64146 18.5868 1.27669C15.5122 2.27981 12.4376 3.37412 9.45627 4.37724C10.6674 9.02807 5.91592 18.5121 2.09603 19.7888C4.33206 20.9743 6.47493 22.1598 8.61779 23.2541C11.6923 24.7132 12.8104 27.905 10.6675 30.5496C7.87246 34.1061 9.54947 35.8387 12.8103 36.9331C15.1395 37.7538 17.5619 38.301 19.9843 38.3922C22.4067 38.4833 24.7358 37.845 27.5309 37.5714C20.6364 42.587 9.17677 39.4865 3.5867 31.4615C-3.02823 21.8863 -0.233178 8.75451 9.82896 2.82698C19.5184 -2.91816 31.8166 0.364754 37.4066 10.2136C42.5309 19.1505 39.829 31.2791 31.3507 35.474ZM26.8787 22.3422C25.6675 16.9618 21.5681 15.0468 17.1893 14.1349C15.7917 13.8613 13.6489 16.0499 12.3445 17.509C11.9718 17.965 13.5557 21.1567 14.2079 21.0655C19.5184 20.8831 19.5184 24.3485 19.7047 27.905C19.7979 29.4553 20.6364 30.9143 21.1023 32.3734C21.5681 32.3734 21.9408 32.4646 22.4066 32.4646C23.9905 28.9993 25.5743 25.3516 26.8787 22.3422ZM3.12086 22.4334C2.65502 22.6158 2.09603 22.8894 1.63019 23.0718C3.21405 26.3547 4.79787 29.6376 6.66123 33.5589C12.065 25.078 10.947 26.3547 3.12086 22.4334ZM2.18918 14.682C2.84135 15.0468 3.40036 15.4116 4.05254 15.7763C5.63639 13.1317 7.31343 10.5783 8.89728 7.93375C8.2451 7.56898 7.59295 7.20422 6.94078 6.74826C5.26375 9.39285 3.67986 12.0374 2.18918 14.682Z" fill="black"/>
<path d="M27.2515 32.191C28.1831 29.82 29.0216 27.5402 29.9533 25.1692C30.6986 25.4428 31.3509 25.6251 32.0962 25.8987C31.3509 28.2697 30.6986 30.7319 29.9533 33.1029C29.1148 32.7382 28.1831 32.4646 27.2515 32.191Z" fill="black"/>
</svg>
