<svg width="40" height="40" viewBox="0 0 40 40" fill="none" xmlns="http://www.w3.org/2000/svg">
<path d="M26.9966 30.5503C23.3484 34.0153 20.7292 37.7539 17.081 39.4864C15.4908 40.2159 10.7201 40.1247 9.41051 39.4864C5.76234 37.6627 2.30122 34.1977 0.430366 30.6415C-0.317977 29.1825 2.11417 25.6263 0.056229 22.8908C-0.2244 22.4349 0.617486 20.52 0.991658 20.52C5.85589 20.6111 5.29463 13.4987 8.9428 14.0458C12.0297 14.5018 15.4908 13.4075 17.3617 14.2282C20.7292 15.596 23.1613 19.4257 25.9676 22.2525C26.0612 22.3437 26.0611 22.526 26.0611 22.7084C25.4999 25.2616 22.413 28.0883 26.9966 30.5503ZM23.3484 22.7996C21.1033 20.3376 19.0454 18.1492 17.4552 16.4166C14.4618 16.4166 11.562 16.4166 8.19447 16.4166C8.94281 20.1552 5.10751 20.9759 2.76894 21.8877C2.76894 25.3528 2.76894 28.1795 2.76894 30.6415C4.92042 32.8299 7.07192 35.1096 9.03632 37.0244C11.8426 37.0244 14.7424 37.0244 16.9875 37.0244C19.139 34.836 21.2904 32.6475 23.2548 30.7327C23.3484 28.1795 23.3484 25.3528 23.3484 22.7996Z" fill="black"/>
<path d="M29.9899 20.2465C26.903 20.4289 19.7002 13.4076 19.7002 10.2161C19.7002 7.29822 26.5288 0.185812 29.6157 0.00344166C32.6091 -0.178928 39.999 6.9335 39.999 10.125C40.0926 13.0429 33.2639 19.9729 29.9899 20.2465ZM30.177 2.28307C28.3061 3.10373 26.3417 4.01556 24.658 4.74504C23.8161 6.65993 22.8807 8.39245 22.2259 9.85141C23.0677 11.9487 23.8161 13.9547 24.3773 15.4137C26.3417 16.2344 28.2126 17.055 29.8963 17.6933C31.8607 16.9638 33.8251 16.1432 35.0412 15.6872C36.0702 13.4988 36.9121 11.7663 37.5669 10.3073C37.0056 5.93045 33.5445 4.01558 30.177 2.28307Z" fill="black"/>
<path d="M12.2169 32.8299C9.31703 32.8299 6.97844 30.0032 7.16552 26.5381C7.35261 23.0731 8.94286 20.8847 12.2169 20.7935C15.1167 20.7023 17.6423 23.4378 17.6423 26.7205C17.6423 29.912 15.0231 32.8299 12.2169 32.8299ZM12.404 20.9759C10.7202 23.529 8.75578 25.1704 8.94286 26.447C9.12995 28.0883 11.0943 29.4561 12.2169 31.0062C13.5265 29.5472 15.4909 28.2706 15.7715 26.6293C16.0521 25.3527 14.0877 23.6202 12.404 20.9759Z" fill="black"/>
<path d="M29.9899 15.1403C28.2126 12.7694 26.1546 11.3105 26.4353 10.3074C26.8094 8.84848 28.7738 7.75425 30.0834 6.56885C31.2059 7.75425 33.0768 8.84847 33.2639 10.2162C33.3574 11.4016 31.5801 12.7694 29.9899 15.1403Z" fill="black"/>
</svg>
