<svg width="60" height="60" viewBox="0 0 60 60" fill="none" xmlns="http://www.w3.org/2000/svg">
<path d="M50.0155 54.9975C48.6918 55.8924 47.5572 57.0855 46.139 57.7815C36.3061 62.5539 24.1095 59.4717 17.8694 50.0263C15.3167 46.1487 12.953 43.4642 8.13109 44.2596C7.37471 44.359 6.52375 43.6631 5.67283 42.0723C8.03651 41.5751 10.4002 41.078 12.953 40.4815C13.8984 35.1125 8.50925 38.5924 7.28014 35.8085C9.26563 34.5159 11.4402 33.124 13.5202 31.8315C13.3311 31.3343 13.0475 30.9367 12.8584 30.4395C8.98201 30.2407 5.011 30.0418 0 29.8429C4.8219 24.2751 11.7239 30.2407 15.6949 24.0763C13.0475 23.3803 10.9675 22.7838 7.65835 21.9884C12.8584 20.1987 16.7348 19.2044 20.3276 17.4148C24.1095 15.5257 27.4187 12.7418 31.106 10.2561C31.106 10.1567 31.2006 9.85849 31.106 9.56021C30.3497 7.27343 28.4587 4.1912 29.2151 2.79924C30.1606 1.10901 33.3752 0.910209 35.6443 0.114806C36.0225 -0.0840442 36.5898 0.0153812 37.0625 0.114806C39.6153 1.00963 42.7353 1.30791 44.3426 3.09757C45.1936 4.09182 43.5862 7.57169 42.8298 10.8527C54.1755 15.6251 61.4557 24.6729 59.7538 39.189C59.2811 42.8677 58.5247 46.8447 54.2701 49.032C58.1465 38.1947 59.1865 27.9539 50.2991 19.3039C46.0445 15.128 40.8444 13.5372 35.077 13.9349C23.8259 14.7303 15.3166 25.0705 16.3566 37.0016C17.113 45.4527 21.1786 51.5177 28.5532 55.097C35.7388 58.5769 42.5462 56.3895 49.3536 53.1085C49.5427 53.7051 49.8264 54.3016 50.0155 54.9975ZM31.7679 3.89296C31.7679 4.29066 31.7679 4.78777 31.7679 5.18547C34.9825 5.18547 38.197 5.18547 41.4116 5.18547C41.4116 4.78777 41.4116 4.29066 41.4116 3.89296C38.1025 3.89296 34.8879 3.89296 31.7679 3.89296Z" fill="black"/>
<path d="M54.5537 35.5101C54.4592 46.1486 46.7063 54.3015 36.4952 54.2021C26.5678 54.1026 18.4367 45.6515 18.4367 35.3113C18.4367 24.7722 26.9459 16.0227 36.8734 16.2216C46.8008 16.4204 54.5537 24.8716 54.5537 35.5101ZM36.7789 51.0205C45.099 50.921 51.7173 43.9613 51.6228 35.2119C51.5282 26.4624 44.8154 19.5027 36.5898 19.5027C28.0805 19.5027 21.1786 26.8601 21.4622 35.709C21.6513 44.359 28.3642 51.1199 36.7789 51.0205Z" fill="black"/>
<path d="M45.6663 26.4626C43.5862 30.3402 41.7899 34.4167 39.2371 37.996C37.5352 40.3822 34.7934 39.8851 33.3752 37.2006C32.146 34.9138 31.4842 32.2293 30.4442 29.3459C33.1861 29.8431 36.1171 31.3344 38.3862 30.6385C40.8444 29.9425 42.6408 27.1586 44.7208 25.2695C45.099 25.5678 45.3826 26.0649 45.6663 26.4626Z" fill="black"/>
</svg>
