<svg width="60" height="60" viewBox="0 0 60 60" fill="none" xmlns="http://www.w3.org/2000/svg">
<path d="M28.6647 42.2363C29.241 45.4633 30.2975 48.4056 30.0094 51.1581C29.4331 57.5173 22.6137 61.2189 16.3707 59.1308C14.3537 58.4664 12.1446 57.9918 9.93552 57.8969C4.36479 57.5173 0.138735 53.5309 0.0426876 48.2158C-0.0533594 33.0297 0.0426876 17.7487 0.0426876 2.56263C0.0426876 1.80333 0.23477 1.04404 0.330817 0C20.1165 0 39.614 0 59.976 0C59.976 3.79652 59.976 7.49812 59.976 11.2946C59.976 20.1215 60.072 28.9485 59.88 37.7754C59.88 39.1991 58.3432 40.7177 57.5748 42.1414C57.0946 43.1854 56.2301 44.2294 56.1341 45.2735C55.942 48.5954 55.846 51.9174 56.1341 55.2393C56.3262 58.5613 55.3658 60.1748 51.6199 59.985C47.2018 59.7003 42.6876 59.7952 38.1734 59.985C35.484 60.0799 34.4275 59.0359 34.5235 56.3783C34.6196 53.3411 34.2354 50.3039 34.6196 47.3616C35.388 42.1414 32.9868 41.0973 28.6647 42.2363ZM57.3828 37.7754C57.3828 26.0062 57.3828 14.3319 57.3828 2.37282C39.0378 2.37282 20.9809 2.37282 3.02012 2.37282C3.02012 14.8064 3.02012 26.7654 3.02012 37.5855C7.91852 38.0601 12.1446 38.7245 16.3707 38.9143C22.3256 39.1042 28.3765 39.0092 34.2354 39.0092C35.5801 29.3281 35.5801 29.3281 45.1848 29.3281C45.3769 29.3281 45.4729 29.3281 45.665 29.3281C55.2697 29.3281 55.2697 29.3281 57.3828 37.7754ZM53.4448 44.5142C53.3487 41.3821 53.3488 38.2499 53.3488 35.0229C53.4448 31.8908 51.2357 31.606 49.1227 32.0806C45.2808 33.0297 40.5745 29.3281 37.597 34.2636C37.501 34.5483 37.501 34.928 37.501 35.2127C37.501 41.477 37.501 47.8362 37.4049 54.1004C37.4049 56.5681 38.4615 57.3274 40.8627 57.3274C55.846 56.9478 52.8685 59.7952 53.2527 45.843C53.4448 45.4633 53.4448 44.9888 53.4448 44.5142ZM27.8002 49.5446C27.7042 45.5582 24.0544 41.9515 20.0205 42.0464C15.8904 42.1414 12.6249 45.5582 12.7209 49.8293C12.8169 54.0055 16.2746 57.5173 20.3086 57.3274C24.3426 57.2325 27.8963 53.436 27.8002 49.5446ZM12.6248 41.1922C12.7209 40.8126 12.7209 40.338 12.8169 39.9584C10.2237 40.7177 7.34222 40.8126 5.22919 42.2363C2.44383 44.2295 1.7715 47.4565 3.30825 50.6835C4.65291 53.5309 6.76595 55.2394 8.78294 55.0495C8.3027 51.0632 7.53433 47.4565 7.82247 43.9447C7.91852 42.9007 10.992 42.0465 12.6248 41.1922Z" fill="black"/>
<path d="M55.846 19.2671C54.7894 19.5519 53.6369 20.0264 52.5804 20.0264C47.2978 20.1213 42.0152 20.0264 36.7326 20.1214C33.9473 20.2163 32.6026 19.2671 32.6986 16.3248C32.8907 12.1487 32.6986 8.0674 32.6986 3.89122C33.2749 3.79631 33.8512 3.70142 34.4275 3.70142C34.8117 5.31494 35.1958 6.92845 35.484 7.78266C38.5575 9.68092 41.2468 11.2944 43.9362 12.908C47.2978 11.4843 50.8515 10.0606 54.8855 8.35215C54.3092 15.4706 46.8176 13.3825 43.9362 17.274C41.8231 15.4706 39.9982 13.8571 37.501 11.6741C36.6366 13.2876 36.0603 14.5215 35.388 15.7554C36.7326 16.2299 38.0773 17.179 39.4219 17.179C43.3599 17.3689 47.3938 17.1791 51.4278 17.274C52.8685 17.274 54.3092 17.6536 55.6538 17.8434C55.8459 18.4129 55.846 18.8875 55.846 19.2671Z" fill="black"/>
<path d="M17.139 11.5795C12.913 11.5795 8.68688 11.5795 4.46082 11.5795C4.46082 11.1049 4.46082 10.7253 4.46082 10.2507C8.68688 10.2507 12.913 10.2507 17.139 10.2507C17.139 10.6304 17.139 11.1049 17.139 11.5795Z" fill="black"/>
<path d="M16.9469 23.4435C12.7209 23.4435 8.59087 23.4435 4.36481 23.4435C4.36481 22.9689 4.36481 22.4943 4.36481 22.0198C8.49483 22.0198 12.7209 22.0198 16.8509 22.0198C16.947 22.4943 16.9469 22.9689 16.9469 23.4435Z" fill="black"/>
<path d="M15.1221 35.4023C11.5683 35.4023 8.11064 35.4023 4.36481 35.4023C6.47784 32.7448 10.6079 32.3651 15.1221 35.4023Z" fill="black"/>
<path d="M15.1221 5.41008C11.5683 5.41008 7.91855 5.41008 4.36481 5.41008C4.36481 4.93551 4.36481 4.55586 4.36481 4.0813C7.91855 4.0813 11.5683 4.0813 15.1221 4.0813C15.1221 4.55586 15.1221 4.93551 15.1221 5.41008Z" fill="black"/>
<path d="M4.36481 27.9993C7.34226 27.9993 10.3197 27.9993 13.2011 27.9993C13.2011 28.4738 13.2011 28.9484 13.2011 29.423C10.2237 29.423 7.34226 29.423 4.36481 29.423C4.36481 28.9484 4.36481 28.4738 4.36481 27.9993Z" fill="black"/>
<path d="M44.7045 41.0972C42.6875 39.8634 39.9021 39.1041 38.8456 37.3956C37.693 35.3076 39.1337 33.2195 42.2072 33.2195C44.3203 33.2195 46.3373 33.2195 48.4503 33.2195C50.9475 33.2195 52.2922 34.1686 52.2922 36.8262C52.2922 39.7685 50.4673 40.1481 48.1622 40.0532C47.2017 40.0532 46.2412 40.0532 45.2808 40.0532C45.1847 40.3379 44.9926 40.7176 44.7045 41.0972Z" fill="black"/>
<path d="M20.2126 42.426C24.4386 46.4124 24.2465 51.5377 20.1165 54.7647C15.9865 51.158 15.9865 46.2225 20.2126 42.426Z" fill="black"/>
</svg>
