<svg width="60" height="60" viewBox="0 0 60 60" fill="none" xmlns="http://www.w3.org/2000/svg">
<path d="M0 49.4899C0 40.0458 0 31.2628 0 22.4798C4.51252 19.4577 3.55244 14.6412 4.22451 10.3914C4.32052 9.91922 6.43277 9.54145 7.5849 9.44701C11.0413 9.35257 14.5937 9.44701 17.7621 9.44701C18.2421 8.78593 18.5302 8.59704 18.6262 8.31371C19.9703 0.00294154 19.9703 0.00295296 28.5153 0.00295296C34.9481 0.00295296 41.2848 0.0973936 47.7175 0.00295296C52.1341 -0.0914876 54.1503 2.08066 54.1503 6.33048C54.1503 10.2025 54.1503 14.169 54.1503 18.4189C59.5269 18.6078 60.295 21.8188 59.911 26.0686C59.6229 28.9018 59.6229 31.735 59.911 34.5682C60.295 38.5348 59.6229 41.5568 54.1503 41.3679C54.1503 45.5233 54.2463 49.3954 54.1503 53.3619C54.0543 58.2728 52.5181 59.9727 47.6216 59.9727C40.2287 60.0672 32.9319 59.8783 25.539 59.9727C21.2185 60.0672 18.7222 58.1784 19.0102 53.8341C19.2982 50.0565 17.474 49.3954 14.1136 49.4899C9.79315 49.6787 5.28061 49.4899 0 49.4899ZM21.6025 29.8462C21.6025 35.3238 21.4105 40.8013 21.7945 46.2789C21.8906 47.5066 23.8108 49.4898 24.9629 49.5843C32.7398 49.8676 40.6127 49.6787 48.3896 49.7732C52.2301 49.8676 51.654 47.3177 51.75 44.9567C51.846 42.5013 51.558 40.6124 48.2936 40.8013C44.1651 40.9902 40.0366 40.8013 35.8121 40.8013C28.8033 40.8013 28.8033 40.8013 28.8033 34.1905C28.8033 30.6017 28.8994 26.9185 28.8033 23.3298C28.6113 20.0244 30.1475 18.7966 33.3159 18.8911C38.3085 18.9855 43.205 18.7022 48.1976 18.9855C51.846 19.1744 51.846 17.0023 51.846 14.4524C51.846 11.808 51.654 9.91925 48.1016 10.0137C40.6127 10.2026 33.1239 10.1081 25.635 10.0137C22.7547 10.0137 21.6025 10.9581 21.6986 13.7913C21.7946 19.1744 21.6025 24.5575 21.6025 29.8462ZM31.3957 37.7792C40.3247 37.7792 48.6777 37.7792 57.2227 37.7792C57.2227 34.8515 57.2227 32.3016 57.2227 29.7517C48.4857 29.7517 40.0367 29.7517 31.3957 29.7517C31.3957 32.4905 31.3957 34.8515 31.3957 37.7792ZM2.59231 46.3733C7.48888 46.3733 12.1934 46.3733 16.8019 46.3733C10.7532 44.579 6.52876 41.0846 6.72078 34.4738C6.9128 27.6741 11.4253 24.4631 17.6661 23.1409C12.6735 23.1409 7.68088 23.1409 2.6883 23.1409C2.59229 31.0739 2.59231 38.5348 2.59231 46.3733ZM36.7723 52.3231C32.7398 52.3231 28.8033 52.2286 24.7709 52.4175C23.7147 52.5119 22.6587 53.6452 21.6986 54.3063C22.6587 55.3451 23.5228 57.3284 24.5789 57.3284C32.5478 57.6117 40.5167 57.6117 48.4856 57.3284C49.5417 57.3284 50.5979 55.1563 51.558 54.023C50.5019 53.4563 49.3497 52.4175 48.2936 52.3231C44.4531 52.2286 40.6127 52.3231 36.7723 52.3231ZM36.3882 7.5582C40.4207 7.5582 44.3572 7.65266 48.3896 7.46378C49.5418 7.36934 50.5979 6.33051 51.654 5.76386C50.5979 4.63058 49.7338 2.83618 48.4856 2.45841C46.3734 1.89177 44.0691 2.26955 41.8609 2.26955C36.3883 2.26955 31.0116 2.08065 25.539 2.45841C24.1948 2.55286 23.0427 4.44168 21.7945 5.57497C23.0427 6.23606 24.1948 7.36934 25.4429 7.46378C28.9954 7.74711 32.6438 7.5582 36.3882 7.5582ZM12.2894 20.591C12.3854 20.4021 12.4815 20.1188 12.5775 19.93C13.2496 19.93 13.8256 19.8355 14.4977 19.93C17.5701 20.3077 19.2022 19.3633 19.1062 15.869C19.0102 12.4691 17.282 11.9025 14.5937 12.0913C13.3456 12.1858 12.0014 12.0914 10.7533 12.1858C6.62478 12.3747 4.70453 14.6413 6.52875 18.0411C7.29683 19.5522 10.2732 19.8355 12.2894 20.591ZM17.8581 42.3123C11.5214 36.5515 11.5213 33.0572 17.9541 27.013C12.5775 26.9186 9.02508 30.1295 9.2171 35.0405C9.40913 39.668 12.8655 42.6901 17.8581 42.3123ZM56.2626 26.3519C56.2626 26.163 56.2626 26.0686 56.2626 25.8797C48.2936 25.8797 40.3247 25.8797 32.3558 25.8797C32.3558 26.0686 32.3558 26.163 32.3558 26.3519C40.3247 26.3519 48.2936 26.3519 56.2626 26.3519ZM32.7398 22.0076C32.6438 22.1965 32.6438 22.2909 32.5478 22.4798C40.3247 22.4798 48.1016 22.4798 55.8785 22.4798C55.8785 22.2909 55.8785 22.1965 55.8785 22.0076C48.1976 22.0076 40.5167 22.0076 32.7398 22.0076Z" fill="black"/>
<path d="M23.5227 45.9956C23.5227 36.5515 23.5227 27.1074 23.5227 17.7578C23.9067 17.7578 24.3868 17.7578 24.7708 17.7578C24.7708 27.2019 24.7708 36.646 24.7708 45.9956C24.3868 45.9956 24.0028 45.9956 23.5227 45.9956Z" fill="black"/>
</svg>
