<svg width="60" height="60" viewBox="0 0 60 60" fill="none" xmlns="http://www.w3.org/2000/svg">
<path d="M21.7164 31.0067C28.5004 31.2929 35.1874 31.7699 41.9713 31.8654C43.9096 31.8654 45.9447 31.0067 47.6892 30.148C48.7552 29.671 49.5306 28.4308 50.4028 27.4767C52.7287 24.9962 55.4422 23.5651 58.3496 26.3318C61.0632 28.9078 60.0941 31.7699 57.8651 34.3459C57.7682 34.4413 57.6713 34.6321 57.5744 34.7275C44.0065 50.5648 48.8521 48.9429 27.822 48.9429C24.6238 48.9429 22.5887 49.5153 21.3288 53.0453C20.3597 55.6212 17.5492 57.6247 15.3202 59.7237C14.8356 60.2007 12.9943 60.0099 12.4128 59.5329C8.34243 55.7167 4.36897 51.7096 0.58935 47.6072C0.0078704 47.0348 -0.18598 45.2221 0.201673 44.7451C5.72573 39.307 10.9591 33.3918 18.7121 31.0067C19.5844 30.7205 20.6504 30.8159 21.6195 30.7205C21.7165 30.7205 21.7164 30.8159 21.7164 31.0067ZM30.3417 39.4978C31.6985 39.2116 33.1522 38.8299 34.509 38.7345C36.4473 38.5437 38.3855 38.7345 40.3238 38.5437C41.0991 38.4483 41.7775 37.5897 42.4559 37.1126C41.7775 36.4448 41.0991 35.1091 40.3238 35.1091C33.6368 34.6321 26.8529 34.2505 20.1658 33.9643C18.8091 33.9643 17.0646 34.3459 16.0955 35.2045C14.5449 36.6356 12.0251 39.784 12.4128 40.1656C14.8356 42.9323 17.6461 46.8439 20.7473 47.2256C26.5621 47.8934 32.6676 46.6531 38.6763 45.8899C41.0022 45.6037 43.9096 45.4129 45.3633 43.9818C49.2398 40.261 52.6318 35.9678 56.0238 31.6745C56.5083 31.0067 56.2176 29.671 56.3145 28.717C55.3454 28.8124 53.9886 28.5261 53.4071 29.0986C51.0812 31.1975 48.5614 33.3918 46.7201 35.9678C42.5528 41.9783 37.8041 43.5048 30.3417 39.4978ZM19.0998 52.2821C15.1263 48.275 11.6374 44.8404 7.95474 41.0242C6.30721 42.7415 4.85354 44.268 2.52762 46.6532C4.85354 48.4659 6.98562 49.7061 8.63314 51.5188C10.2807 53.4269 11.4437 55.7166 12.8973 58.1972C16.0955 55.1442 17.4522 53.8085 19.0998 52.2821Z" fill="black"/>
<path d="M34.7996 0C42.1651 0 47.9799 5.81973 47.9799 13.0705C47.9799 20.5121 41.8744 26.5227 34.412 26.3318C27.1435 26.141 21.4256 20.2259 21.5225 12.9751C21.6194 5.62891 27.4342 0 34.7996 0ZM34.7028 3.05298C29.0818 3.05298 24.6238 7.34621 24.5269 12.9751C24.4299 18.6994 29.1787 23.3743 34.8966 23.2789C40.5176 23.1835 44.8786 18.604 44.7817 12.9751C44.6848 7.34621 40.3237 3.05298 34.7028 3.05298Z" fill="black"/>
<path d="M38.5794 10.2083C36.5442 10.3992 35.3812 10.3992 33.2491 10.59C41.2929 13.8337 37.901 17.4592 34.509 21.7524C33.0553 19.8443 31.8923 18.2224 30.1479 15.9327C32.0862 15.7418 33.2491 15.551 34.509 15.3602C29.5664 12.1164 29.4695 11.544 34.4121 4.29321C35.8658 6.29672 36.9318 7.91862 38.5794 10.2083Z" fill="black"/>
</svg>
