<svg width="40" height="40" viewBox="0 0 40 40" fill="none" xmlns="http://www.w3.org/2000/svg">
<path d="M36.7775 39.9083C25.4298 39.9083 15.1571 39.9083 3.68985 39.9083C4.64545 35.4131 5.48161 31.1013 6.31777 26.8814C5.72052 26.7896 5.00377 26.6061 4.40652 26.5144C3.09257 30.7344 1.6592 34.8626 0.106344 40C-0.490907 28.4409 1.0619 26.6062 14.3209 22.2027C12.5291 19.8175 9.42347 17.4322 9.30402 14.9553C9.18457 10.9188 10.0207 6.51532 12.4097 3.02924C13.6042 1.19446 18.6211 0.0936069 21.9657 0.00186805C26.9826 -0.0898708 28.6549 3.21271 30.5661 6.51531C34.508 12.8453 29.3716 17.3405 25.7881 22.7531C39.286 23.487 40.7194 30.7344 39.7638 38.8991C39.286 36.8809 38.9276 34.8626 38.3304 32.9361C37.6137 30.8261 36.7775 28.8079 35.9414 26.6979C35.3441 26.7896 34.7469 26.8813 34.1496 26.9731C34.8663 31.1931 35.8219 35.3213 36.7775 39.9083ZM35.1052 39.0826C33.7913 34.1287 32.7162 30.0005 31.6411 25.7805C31.2828 25.7805 30.9245 25.7805 30.5661 25.7805C30.2078 27.707 29.8494 29.7253 29.6105 31.6518C23.0408 31.6518 16.9488 31.6518 10.6179 31.6518C10.2596 29.5418 10.0207 27.6153 9.78178 25.7805C9.42342 25.7805 8.94563 25.8722 8.58727 25.8722C7.51222 30.0922 6.55661 34.3122 5.36211 39.0826C8.70671 39.0826 10.618 39.0826 12.6486 39.0826C19.4573 39.0826 26.3854 39.0826 35.1052 39.0826ZM11.2152 12.8453C13.0069 15.9644 13.7236 18.9 16.1126 20.5513C17.7849 21.6522 22.563 21.6522 24.2353 20.5513C26.5048 18.9918 27.2215 15.9644 29.1327 12.8453C22.4435 12.8453 17.9044 12.8453 11.2152 12.8453ZM14.082 1.56141C12.5292 5.23097 11.3346 7.79967 10.1401 10.5518C17.1877 10.5518 23.3991 10.5518 29.8494 10.5518C29.3716 8.90054 29.1327 7.70795 28.6549 6.60708C28.0576 5.32273 27.2215 4.13012 26.3854 2.75403C21.7268 7.79967 18.3822 7.70792 14.082 1.56141ZM12.5291 30.5509C17.7849 30.5509 22.6824 30.5509 27.5799 30.5509C27.5799 28.3492 27.5799 26.3309 27.5799 24.4044C26.8632 24.0374 26.1465 23.6705 25.4298 23.2118C24.1158 25.3218 22.8018 27.5235 21.4879 29.6335C21.0101 29.1748 20.5323 28.8078 19.935 28.3492C17.7849 26.8813 15.7543 25.3218 12.4097 23.0283C12.5291 26.5144 12.5291 28.4409 12.5291 30.5509Z" fill="black"/>
</svg>
