<svg width="40" height="40" viewBox="0 0 40 40" fill="none" xmlns="http://www.w3.org/2000/svg">
<path d="M33.8889 14.8523C32.1296 16.8646 30.1852 18.9727 27.3148 22.1348C30.9259 20.9849 33.4259 20.2184 36.3889 19.2601C37.5 22.3264 38.6111 25.2011 40 28.9381C26.4815 32.2919 14.9074 41.5866 0 39.766C0 26.3509 0 13.3192 0 0C3.33333 0 6.48147 0 9.99999 0C9.99999 2.97047 9.99999 5.65349 9.99999 8.33649C10.2778 8.43231 10.6481 8.62395 10.9259 8.71977C12.1296 6.22841 13.2407 3.73705 14.7222 0.574935C17.5926 1.82062 20.4629 3.0663 23.5185 4.4078C22.5 7.37827 21.6667 9.77382 20.8333 12.2652C21.0185 12.361 21.2963 12.5526 21.4815 12.6485C23.3333 10.9237 25.2778 9.29471 27.3148 7.37827C29.6296 9.96546 31.6666 12.2652 33.8889 14.8523ZM8.05556 2.20391C5.83334 2.20391 3.88888 2.20391 2.12962 2.20391C2.12962 14.2774 2.12962 25.9677 2.12962 37.5621C4.25925 37.5621 6.01853 37.5621 8.05556 37.5621C8.05556 25.6802 8.05556 14.1816 8.05556 2.20391ZM12.6852 32.2919C18.3333 26.6384 24.7222 20.3142 31.2037 13.8941C30 12.7443 28.7037 11.4986 27.5926 10.4446C19.3518 16.2897 14.7222 24.0512 12.6852 32.2919ZM16.0185 3.25796C11.0185 11.7861 8.7963 20.41 10.8333 31.2378C14.6296 21.9432 17.8704 13.8941 21.2963 5.55767C19.3518 4.69528 17.7778 4.02453 16.0185 3.25796ZM14.1667 36.4122C22.5926 33.2501 29.8148 30.4713 36.9444 27.6925C35.9259 22.039 35.6481 21.7515 32.6852 22.5181C25.2778 24.5303 19.3518 28.6507 14.1667 36.4122Z" fill="black"/>
</svg>
