<svg width="40" height="40" viewBox="0 0 40 40" fill="none" xmlns="http://www.w3.org/2000/svg">
<g clip-path="url(#clip0_273_991)">
<path d="M2.3706 34.4851L3.95101 32.7931C6.6772 29.9282 6.70091 28.1377 4.05373 25.255C-1.75425 18.9256 -1.28013 9.84767 5.17582 4.23442C11.7582 -1.50416 21.9597 -1.39673 28.4473 4.47614C34.9348 10.349 35.0059 19.9909 28.5974 25.9623C25.3023 29.024 21.4856 30.3401 17.2106 30.6444C15.488 30.7608 13.789 31.674 12.1059 32.3096C9.032 33.4824 5.96602 34.7089 2.90004 35.8906L2.3706 34.4851ZM11.9399 24.8342L11.2604 25.7295C12.8882 25.5952 14.516 25.3356 16.1517 25.3445C19.5733 25.3445 22.7657 24.6015 25.484 22.0769C29.8538 18.0213 29.7511 12.1664 25.239 8.28097C20.5452 4.21652 12.8408 4.20756 8.15488 8.22726C3.72185 12.0321 3.46899 17.6274 7.67286 21.7904C9.02199 22.9312 10.4488 23.949 11.9399 24.8342Z" fill="#085B53"/>
<path d="M17.5662 33.4916C27.499 32.0323 34.7689 27.2158 35.9463 14.8882C40.0316 17.3054 41.2564 23.787 38.5934 28.7199C38.2262 29.379 37.8141 30.0046 37.3607 30.591C33.9234 35.0672 33.9155 35.0672 37.6847 39.8121C34.7136 40.4298 32.2876 39.4003 29.8301 38.0216C28.2801 37.2533 26.6613 36.677 25.002 36.3027C22.5287 35.6133 20.0316 35.0672 17.5425 34.4585L17.5662 33.4916Z" fill="#085B53"/>
</g>
<defs>
<clipPath id="clip0_273_991">
<rect width="40" height="40" fill="white"/>
</clipPath>
</defs>
</svg>
