<svg width="60" height="60" viewBox="0 0 60 60" fill="none" xmlns="http://www.w3.org/2000/svg">
<path d="M29.9986 60C13.457 60 0 46.5421 0 30.0005C0 13.4579 13.457 0 29.9986 0C46.5403 0 59.9991 13.4579 59.9991 30.0005C60 46.5421 46.5412 60 29.9986 60ZM29.9986 3.62894C15.4593 3.62894 3.62894 15.4593 3.62894 30.0005C3.62894 44.5416 15.4593 56.3711 29.9986 56.3711C44.538 56.3711 56.3701 44.5407 56.3701 30.0005C56.3701 15.4602 44.5398 3.62894 29.9986 3.62894Z" fill="white"/>
<path d="M39.8993 26.4142C39.8993 20.0808 35.4666 14.9468 29.9996 14.9468C24.5335 14.9468 20.1016 20.0799 20.1016 26.4142C20.1016 26.4142 19.0547 32.3748 29.9996 45.0543C40.9453 32.3757 39.8993 26.4142 39.8993 26.4142ZM29.9986 28.8647C27.8068 28.8647 26.0295 27.0874 26.0295 24.8955C26.0295 22.7027 27.8068 20.9255 29.9986 20.9255C32.1914 20.9255 33.9678 22.7027 33.9678 24.8955C33.9687 27.0874 32.1914 28.8647 29.9986 28.8647Z" fill="white"/>
</svg>
