<svg width="128" height="30" viewBox="0 0 128 30" fill="none" xmlns="http://www.w3.org/2000/svg">
<path d="M16 0.77299C19.5036 0.77299 22.7569 0.515327 25.9477 0.837411C34.3938 1.67483 39.6492 9.40484 37.8974 17.9723C36.2707 26.0244 32.5794 29.1808 24.5713 29.374C21.8184 29.4385 19.0031 29.374 16 29.374C16 19.7759 16 10.3711 16 0.77299ZM21.5056 5.7975C21.5056 12.2392 21.5056 18.1655 21.5056 24.2207C25.5097 24.0919 29.5138 24.6072 31.5784 20.3557C33.3302 16.8128 33.3302 13.0766 31.203 9.59809C28.9507 5.86191 25.322 5.86192 21.5056 5.7975Z" fill="#085B53"/>
<path d="M96.4568 18.2944C98.1461 20.2269 99.6476 21.9661 101.212 23.7054C102.651 25.3802 104.152 26.9906 105.967 28.9876C102.588 29.5673 99.8353 30.0182 97.6456 26.9262C96.0189 24.6072 93.8292 22.6747 91.3892 19.9692C91.3892 23.4477 91.3892 26.2176 91.3892 29.1808C89.4497 29.1808 87.8856 29.1808 86.1338 29.1808C86.1338 19.5183 86.1338 9.85577 86.1338 0C87.7605 0 89.262 0 91.0763 0C91.0763 5.21776 91.0763 10.4355 91.0763 16.6839C93.0158 14.6226 94.5174 13.3987 95.5184 11.7883C97.7081 8.30977 100.649 7.47234 104.84 8.43859C102.088 11.7239 99.3973 14.8803 96.4568 18.2944Z" fill="#085B53"/>
<path d="M60.7958 20.2912C55.3527 20.2912 50.0974 20.2912 44.7169 20.2912C45.6553 24.6071 49.2841 26.6685 53.0379 24.5427C55.6656 23.0611 57.2297 24.0918 59.1692 25.1869C56.604 29.696 50.2851 31.3065 45.0923 28.8586C40.5251 26.7329 38.0851 20.7421 39.7118 15.5243C41.4636 9.79125 46.5938 6.63484 52.3497 7.72992C57.8553 8.69617 61.2963 13.6563 60.7958 20.2912ZM56.1035 15.9109C54.4143 13.2698 52.6625 11.9814 50.1599 12.1747C47.9076 12.3679 45.9682 13.1409 45.0297 15.9109C48.6584 15.9109 52.0369 15.9109 56.1035 15.9109Z" fill="#085B53"/>
<path d="M127.952 20.2912C122.509 20.2912 117.254 20.2912 111.873 20.2912C112.812 24.6071 116.44 26.6685 120.194 24.5427C122.822 23.0611 124.386 24.0918 126.325 25.1869C123.76 29.696 117.441 31.3065 112.249 28.8586C107.681 26.7329 105.241 20.7421 106.868 15.5243C108.62 9.79125 113.75 6.63484 119.506 7.72992C125.012 8.69617 128.453 13.6563 127.952 20.2912ZM123.26 15.9109C121.571 13.2698 119.819 11.9814 117.316 12.1747C115.064 12.3679 113.124 13.1409 112.186 15.9109C115.815 15.9109 119.193 15.9109 123.26 15.9109Z" fill="#085B53"/>
<path d="M79.315 22.8035C80.6288 23.7054 81.8175 24.5428 83.0063 25.3802C79.7529 29.6961 74.1847 31.1133 68.8042 29.0519C64.8627 27.5704 62.0473 23.2544 62.1099 18.7453C62.1725 13.7207 65.2381 9.66249 70.0555 8.05207C75.1232 6.37724 80.0032 7.98766 83.0688 12.368C81.1293 13.914 79.4401 15.0735 76.7499 13.3342C74.3099 11.6594 70.4935 12.6257 68.8042 14.7514C67.0525 16.8772 66.8648 20.2913 68.4289 22.5459C70.1181 24.9293 73.6842 25.8311 76.6247 24.5428C77.5006 24.0919 78.2514 23.5121 79.315 22.8035Z" fill="#085B53"/>
<rect y="1" width="8" height="8" fill="black"/>
<rect y="11" width="8" height="8" fill="#EEFF00"/>
<rect y="21" width="8" height="8" fill="#FF0000"/>
</svg>
