<svg width="60" height="60" viewBox="0 0 60 60" fill="none" xmlns="http://www.w3.org/2000/svg">
<path d="M10 15.6665V17.1938V42.8058V44.3332H50V42.8058V17.1938V15.6665H10ZM34.4167 30.3758L30.786 34.0238C30.3447 34.4338 29.654 34.4332 29.2313 34.0412L25.5827 30.3758L25.6147 30.3445L12.4313 16.9998H47.5773L34.3847 30.3452L34.4167 30.3758ZM23.6827 30.3552L11.3333 42.2365V17.9485L23.6827 30.3552ZM24.6227 31.2998L28.3047 34.9992C28.7773 35.4398 29.384 35.6612 29.9933 35.6612C30.6087 35.6612 31.2267 35.4352 31.714 34.9812L35.378 31.2998L47.536 42.9998H12.4573L24.6227 31.2998ZM36.318 30.3558L48.6667 17.9478V42.2365L36.318 30.3558Z" fill="white"/>
<circle cx="30" cy="30" r="28" stroke="white" stroke-width="4"/>
</svg>
