<svg width="38" height="38" viewBox="0 0 38 38" fill="none" xmlns="http://www.w3.org/2000/svg">
<path d="M7.64222 16.4456C10.6822 22.42 15.58 27.3178 21.5544 30.3578L26.1989 25.7133C26.79 25.1222 27.6133 24.9533 28.3522 25.1856C30.7167 25.9667 33.25 26.3889 35.8889 26.3889C36.4488 26.3889 36.9858 26.6113 37.3817 27.0072C37.7776 27.4031 38 27.9401 38 28.5V35.8889C38 36.4488 37.7776 36.9858 37.3817 37.3817C36.9858 37.7776 36.4488 38 35.8889 38C26.3706 38 17.2421 34.2189 10.5116 27.4884C3.78114 20.7579 0 11.6294 0 2.11111C0 1.55121 0.22242 1.01424 0.61833 0.61833C1.01424 0.22242 1.55121 0 2.11111 0H9.5C10.0599 0 10.5969 0.22242 10.9928 0.61833C11.3887 1.01424 11.6111 1.55121 11.6111 2.11111C11.6111 4.75 12.0333 7.28333 12.8144 9.64778C13.0467 10.3867 12.8778 11.21 12.2867 11.8011L7.64222 16.4456Z" fill="black"/>
</svg>
