<svg width="60" height="60" viewBox="0 0 60 60" fill="none" xmlns="http://www.w3.org/2000/svg">
<g clip-path="url(#clip0_273_1064)">
<path d="M30 3.75C44.4727 3.75 56.25 15.5273 56.25 30C56.25 44.4727 44.4727 56.25 30 56.25C15.5273 56.25 3.75 44.4727 3.75 30C3.75 15.5273 15.5273 3.75 30 3.75ZM30 0C13.4326 0 0 13.4326 0 30C0 46.5674 13.4326 60 30 60C46.5674 60 60 46.5674 60 30C60 13.4326 46.5674 0 30 0ZM46.7249 40.0305L46.5564 39.5179C46.1609 38.3387 44.8571 37.1082 43.656 36.7786L39.2212 35.5664C38.0201 35.2405 36.3062 35.68 35.4238 36.5625L33.8197 38.1666C27.9896 36.5882 23.4157 32.0142 21.8409 26.1841L23.445 24.5801C24.3239 23.7012 24.7634 21.9873 24.4375 20.7825L23.2288 16.3477C22.9029 15.1465 21.665 13.8428 20.4859 13.4473L19.9805 13.2787C18.7976 12.8832 17.1094 13.2824 16.2305 14.165L13.8281 16.5674C13.3997 16.9922 13.125 18.2116 13.125 18.2154C13.0444 25.84 16.0328 33.1825 21.4234 38.5767C26.7994 43.9527 34.1163 46.9375 41.7151 46.8714C41.7554 46.8714 43.0116 46.6041 43.44 46.1755L45.8423 43.7732C46.7212 42.8979 47.1166 41.2097 46.7249 40.0305Z" fill="white"/>
</g>
<defs>
<clipPath id="clip0_273_1064">
<rect width="60" height="60" fill="white"/>
</clipPath>
</defs>
</svg>
