<svg width="40" height="40" viewBox="0 0 40 40" fill="none" xmlns="http://www.w3.org/2000/svg">
<g clip-path="url(#clip0_197_1195)">
<path fill-rule="evenodd" clip-rule="evenodd" d="M20.6829 17.9111C18.2971 20.1066 15.9684 22.1847 15.9684 22.1847C15.6463 22.4718 15.6188 22.9655 15.9059 23.2876C16.1929 23.609 16.6867 23.6372 17.0088 23.3501C17.0088 23.3501 23.1091 17.9049 25.7139 15.3001C26.1116 14.9032 26.2311 14.5989 26.2524 14.4726C26.3066 14.1512 26.194 13.9246 26.0319 13.7597C25.9131 13.6382 25.7366 13.5228 25.466 13.5111C25.3335 13.5056 25.0389 13.5571 24.6419 13.7439C22.3716 14.8118 13.3436 20.8263 13.3436 20.8263C12.9845 21.0653 12.8876 21.5508 13.1266 21.9093C13.3663 22.2685 13.8518 22.3653 14.2103 22.1263C14.2103 22.1263 17.5705 19.8848 20.6829 17.9111Z" fill="white"/>
<path fill-rule="evenodd" clip-rule="evenodd" d="M20 1.71875C9.91 1.71875 1.71875 9.91 1.71875 20C1.71875 30.09 9.91 38.2812 20 38.2812C30.09 38.2812 38.2812 30.09 38.2812 20C38.2812 9.91 30.09 1.71875 20 1.71875ZM20 3.28125C29.2275 3.28125 36.7188 10.7725 36.7188 20C36.7188 29.2275 29.2275 36.7188 20 36.7188C10.7725 36.7188 3.28125 29.2275 3.28125 20C3.28125 10.7725 10.7725 3.28125 20 3.28125Z" fill="white"/>
<path fill-rule="evenodd" clip-rule="evenodd" d="M13.15 22.0945L14.8215 27.5321C14.8277 27.552 14.8345 27.572 14.8421 27.5912C15.02 28.0376 15.1985 28.2972 15.3262 28.4201C15.557 28.6426 15.7939 28.6941 15.9903 28.6886C16.2664 28.6804 16.7114 28.5155 16.8879 27.8611C16.9003 27.813 16.9092 27.7642 16.9126 27.7148L17.1654 24.2344L23.7684 29.091C24.4469 29.6061 25.0567 29.7153 25.5189 29.5745C25.9955 29.4289 26.457 28.9921 26.6754 28.0623C26.6768 28.0568 26.6781 28.0513 26.6788 28.0458L29.9381 12.6882C30.1325 11.8702 30.0233 11.259 29.7575 10.9019C29.4491 10.4865 28.8661 10.2042 27.8744 10.472C27.8476 10.4789 27.8209 10.4878 27.7955 10.4981L8.65179 17.9225C8.62226 17.9342 8.59341 17.9479 8.56526 17.9623C7.65807 18.4492 7.45617 19.0062 7.45343 19.3667C7.44999 19.8523 7.79061 20.322 8.36885 20.5541C8.38602 20.561 8.40319 20.5679 8.42104 20.5733L13.15 22.0945ZM28.4692 11.9451C28.4616 12.0564 28.4465 12.2074 28.4163 12.3345C28.4142 12.3413 28.4128 12.3482 28.4115 12.3551L25.1529 27.7107C25.1254 27.824 25.0711 27.9538 25.0347 28.0348C24.9482 27.9922 24.8102 27.9201 24.7106 27.8439C24.7065 27.8412 24.7031 27.8384 24.6989 27.8357L16.9511 22.1378C16.7224 21.9695 16.4195 21.9386 16.1613 22.0574C15.9031 22.1769 15.7301 22.4269 15.7094 22.7105L15.5687 24.6451L14.5235 21.2464C14.4486 21.0026 14.2591 20.8103 14.0159 20.732L9.48755 19.2747L28.316 11.9719C28.3668 11.9602 28.4204 11.9513 28.4692 11.9451Z" fill="white"/>
<path fill-rule="evenodd" clip-rule="evenodd" d="M16.5027 28.4946L19.8993 25.5615C20.2255 25.28 20.2619 24.7862 19.9803 24.46C19.6981 24.1338 19.2043 24.0974 18.8781 24.379L15.4821 27.3121C15.1553 27.5936 15.1196 28.0874 15.4011 28.4136C15.6827 28.7405 16.1765 28.7762 16.5027 28.4946Z" fill="white"/>
</g>
<defs>
<clipPath id="clip0_197_1195">
<rect width="40" height="40" fill="white"/>
</clipPath>
</defs>
</svg>
