<svg width="40" height="40" viewBox="0 0 40 40" fill="none" xmlns="http://www.w3.org/2000/svg">
<path d="M19.9998 3.10156C10.6877 3.10156 3.11151 10.6821 3.11151 19.9999C3.11151 29.3177 10.6877 36.8982 19.9998 36.8982C29.3122 36.8982 36.8884 29.3177 36.8884 19.9999C36.8884 10.6821 29.312 3.10156 19.9998 3.10156ZM19.9998 35.2316C11.6061 35.2316 4.77722 28.3985 4.77722 19.9999C4.77722 11.6013 11.6061 4.76823 19.9998 4.76823C28.3936 4.76823 35.2227 11.6013 35.2227 19.9999C35.2227 28.3985 28.3936 35.2316 19.9998 35.2316Z" fill="white"/>
<path d="M25.2843 11.8613H14.7154C13.1566 11.8613 11.8881 13.1302 11.8881 14.6902V25.3138C11.8881 26.8735 13.1563 28.1427 14.7154 28.1427H25.284C26.8428 28.1427 28.1113 26.8738 28.1113 25.3138V14.6899C28.1113 13.1302 26.8431 11.8613 25.2843 11.8613ZM22.4445 19.9719C22.4445 21.3208 21.3479 22.418 19.9998 22.418C18.6517 22.418 17.5551 21.3208 17.5551 19.9719C17.5551 19.3027 17.8255 18.696 18.2619 18.2541H21.7374C22.1744 18.696 22.4445 19.3027 22.4445 19.9719ZM23.1533 14.1247H25.6296V16.6772H23.1533V14.1247ZM25.2843 26.4758H14.7154C14.0749 26.4758 13.5538 25.9544 13.5538 25.3135V18.2541H16.27C16.0282 18.7777 15.8894 19.3583 15.8894 19.9719C15.8894 22.2399 17.7334 24.0847 19.9998 24.0847C22.2663 24.0847 24.1102 22.2397 24.1102 19.9719C24.1102 19.3583 23.9714 18.7777 23.7296 18.2541H26.4456V25.3135C26.4456 25.9544 25.9245 26.4758 25.2843 26.4758Z" fill="white"/>
</svg>
