<svg width="40" height="40" viewBox="0 0 40 40" fill="none" xmlns="http://www.w3.org/2000/svg">
<path d="M19.9999 3.10156C10.6877 3.10156 3.11154 10.6821 3.11154 19.9999C3.11154 29.3179 10.6877 36.8982 19.9999 36.8982C29.3123 36.8982 36.8887 29.3179 36.8887 19.9999C36.8885 10.6821 29.312 3.10156 19.9999 3.10156ZM19.9999 35.2316C11.6061 35.2316 4.77725 28.3988 4.77725 19.9999C4.77725 11.6013 11.6061 4.76823 19.9999 4.76823C28.3936 4.76823 35.223 11.6013 35.223 19.9999C35.2228 28.3988 28.3936 35.2316 19.9999 35.2316Z" fill="white"/>
<path d="M25.2055 10.0845H21.542C21.5334 10.0845 21.5251 10.0847 21.517 10.0856C17.8183 10.0972 17.3353 12.6814 17.3333 14.94C17.3283 14.9611 17.3256 14.9828 17.3256 15.0053V16.5909H14.7942C14.641 16.5909 14.5166 16.7153 14.5166 16.8686V20.7789C14.5166 20.9325 14.641 21.0567 14.7942 21.0567H17.3256V29.6375C17.3256 29.7911 17.4499 29.9153 17.6032 29.9153H21.2974C21.451 29.9153 21.5751 29.7911 21.5751 29.6375V21.057H25.2052C25.3587 21.057 25.4828 20.9328 25.4828 20.7792V16.8689C25.4828 16.7156 25.3587 16.5911 25.2052 16.5911H21.2974V14.4892H25.2052C25.3587 14.4892 25.4828 14.3648 25.4828 14.2114V10.3623C25.4831 10.2089 25.3587 10.0845 25.2055 10.0845Z" fill="white"/>
</svg>
