<svg width="40" height="40" viewBox="0 0 40 40" fill="none" xmlns="http://www.w3.org/2000/svg">
<path d="M20.2216 2.75879C10.9094 2.75879 3.33325 10.3393 3.33325 19.6571C3.33325 28.9749 10.9094 36.5555 20.2216 36.5555C29.534 36.5555 37.1105 28.9749 37.1105 19.6571C37.1105 10.3393 29.534 2.75879 20.2216 2.75879ZM20.2216 34.8888C11.8278 34.8888 4.99896 28.0557 4.99896 19.6571C4.99896 11.2585 11.8278 4.42546 20.2216 4.42546C28.6159 4.42546 35.4447 11.2585 35.4447 19.6571C35.4447 28.0557 28.6159 34.8888 20.2216 34.8888Z" fill="white"/>
<path d="M30 20.0001L15 28.959L15 11.0412L30 20.0001Z" fill="white"/>
</svg>
